:SAMPLES-PER-SECOND 30
:FULLY-SPECIFIED
:DEGREES
486
root  51.9536 39.5052 7.54114 -37.5669 -83.3705 33.3745
RightUpLeg  13.0309 -10.9343 -5.26383
RightLeg  10.1621 1.84981 6.1765
RightFoot  -16.9345 -0.163373 -0.999895
RightToes  0.00048216 0.542163 -0.142577
Spine  18.3017 0.311298 5.58048
Spine1  9.36169 2.58368 -4.81178
HEad  -14.0475 1.7314 -4.71845
LeftShoulder1  8.57638 -13.63 -43.553
LeftArm  -27.5748 25.9892 -18.8923
LeftForeArm  118.088 -75.5756 -132.464
LeftHand  -0.25398 0.0180481 5.50724
RightShoulder  5.44809 9.631 35.5088
RightArm  -10.3694 -7.44723 31.3969
RightForeArm  49.9716 78.2924 88.4956
RightHand  -0.315716 -14.864 2.45426
LeftUpLeg  -17.085 3.33312 -5.81272
LeftLeg  12.9941 5.23576 1.10323
LeftFoot  -1.2957 0.091635 -0.948834
LeftToes  1.06244e-005 4.65856e-005 -8.18505e-006
487
root  50.6533 39.2957 7.6234 -39.4669 -83.6642 35.088
RightUpLeg  15.6176 -11.2028 -5.90363
RightLeg  9.90039 1.75485 6.45441
RightFoot  -17.8334 -0.192003 -1.26295
RightToes  0.00048216 0.542163 -0.142577
Spine  17.3516 -0.11489 5.58522
Spine1  9.53411 2.12093 -5.02774
HEad  -13.8139 2.21871 -4.87331
LeftShoulder1  8.43933 -13.4871 -43.1977
LeftArm  -28.3676 25.0672 -19.6152
LeftForeArm  119.064 -75.3197 -133.558
LeftHand  -0.25398 0.0180481 5.50724
RightShoulder  5.53676 9.71497 35.9069
RightArm  -10.4304 -7.23006 30.8398
RightForeArm  51.4221 78.2579 91.0416
RightHand  -0.190498 -14.0512 1.12293
LeftUpLeg  -17.4404 1.82586 -5.83455
LeftLeg  5.94779 13.6238 -1.76465
LeftFoot  -0.553424 0.142587 -1.48287
LeftToes  1.06244e-005 4.65856e-005 -8.18505e-006
488
root  49.264 38.962 7.75548 -31.0143 -83.2004 26.7258
RightUpLeg  17.8717 -11.565 -5.89821
RightLeg  10.165 0.610907 6.95678
RightFoot  -19.0718 -0.198379 -1.03417
RightToes  0.00048216 0.542163 -0.142577
Spine  15.8218 -1.09579 6.32922
Spine1  9.67214 1.102 -5.22486
HEad  -13.4843 2.72285 -5.05066
LeftShoulder1  8.28376 -13.2922 -42.8748
LeftArm  -28.9368 24.1476 -20.3527
LeftForeArm  120.038 -75.0488 -134.656
LeftHand  -0.25398 0.0180481 5.50724
RightShoulder  5.56845 9.76606 35.9824
RightArm  -10.3765 -7.12754 30.4643
RightForeArm  51.875 78.1949 92.9896
RightHand  -0.0503695 -13.272 -0.626124
LeftUpLeg  -17.7527 -2.4659 -5.08039
LeftLeg  -0.115764 24.8915 -5.39632
LeftFoot  -1.45863 0.15892 -1.73321
LeftToes  1.06244e-005 4.65856e-005 -8.18505e-006
489
root  47.7209 38.551 7.87232 -20.8129 -82.9759 16.8274
RightUpLeg  19.8218 -11.9025 -5.52167
RightLeg  11.0859 0.124223 7.52707
RightFoot  -20.0599 -0.185095 -0.644096
RightToes  0.00048216 0.542163 -0.142577
Spine  13.5663 -1.82667 7.52265
Spine1  10.2134 0.500038 -5.76613
HEad  -12.8586 3.07021 -4.92041
LeftShoulder1  8.13939 -13.1394 -42.4904
LeftArm  -28.8461 23.1204 -20.7831
LeftForeArm  120.801 -74.8324 -135.495
LeftHand  -0.25398 0.0180481 5.50724
RightShoulder  5.58517 9.80626 35.9813
RightArm  -10.5973 -7.41233 30.1668
RightForeArm  52.8968 78.1405 94.8831
RightHand  -0.0247517 -13.2777 -1.00973
LeftUpLeg  -18.5165 -3.44657 -5.5485
LeftLeg  -2.03525 29.3404 -6.68478
LeftFoot  -3.01097 0.0889649 -0.935861
LeftToes  1.06244e-005 4.65856e-005 -8.18505e-006
490
root  46.019 38.2131 7.87341 -25.2569 -84.2972 21.1108
RightUpLeg  22.3741 -12.9729 -6.91081
RightLeg  12.5839 3.28669 7.85938
RightFoot  -20.0562 -0.175846 -0.540474
RightToes  0.00048216 0.542163 -0.142577
Spine  11.9309 -1.33754 7.22498
Spine1  11.0547 1.21303 -6.25108
HEad  -12.1248 3.25876 -4.19089
LeftShoulder1  7.97948 -13.0061 -41.9567
LeftArm  -28.0424 22.3366 -20.8829
LeftForeArm  121.816 -74.5457 -136.562
LeftHand  -0.25398 0.0180481 5.50724
RightShoulder  5.58852 9.78801 36.0622
RightArm  -10.9671 -8.13326 29.8375
RightForeArm  54.4751 78.1047 96.5372
RightHand  -0.0711784 -13.4557 -0.357094
LeftUpLeg  -18.8203 -2.70611 -6.40763
LeftLeg  0.437276 29.6039 -5.62308
LeftFoot  -2.50143 -0.163504 2.18282
LeftToes  1.06244e-005 4.65856e-005 -8.18505e-006
491
root  44.2012 37.9998 7.68268 -64.2226 -86.0973 58.8586
RightUpLeg  25.7786 -15.5449 -11.5033
RightLeg  15.3659 11.3816 7.82734
RightFoot  -19.209 -0.10792 0.275561
RightToes  0.00048216 0.542163 -0.142577
Spine  11.9142 0.664504 3.95293
Spine1  11.4961 2.98521 -5.50548
HEad  -11.5627 3.43665 -3.00914
LeftShoulder1  7.81479 -12.8399 -41.4752
LeftArm  -26.9113 22.0643 -20.8121
LeftForeArm  123.056 -74.1881 -137.831
LeftHand  -0.25398 0.0180481 5.50724
RightShoulder  5.59503 9.74585 36.2407
RightArm  -11.2591 -9.17663 29.5301
RightForeArm  55.1903 78.0959 97.0993
RightHand  -0.0960164 -13.1759 0.0132692
LeftUpLeg  -18.5045 3.39874 -8.59287
LeftLeg  6.37613 25.1328 -2.7452
LeftFoot  0.0404899 -0.695597 6.93563
LeftToes  1.06244e-005 4.65856e-005 -8.18505e-006
492
root  42.4032 37.8893 7.42229 -114.877 -85.0484 108.111
RightUpLeg  27.6842 -17.1422 -16.3138
RightLeg  20.312 18.7854 8.2151
RightFoot  -16.784 0.0529459 3.62368
RightToes  0.00048216 0.542163 -0.142577
Spine  12.532 2.86978 -0.578942
Spine1  11.2048 4.44602 -3.88796
HEad  -11.0023 3.57619 -1.93051
LeftShoulder1  7.75896 -12.7673 -41.3536
LeftArm  -25.7895 21.9586 -20.6668
LeftForeArm  123.448 -74.1279 -138.07
LeftHand  -0.25398 0.0180481 5.50724
RightShoulder  5.64834 9.77727 36.5341
RightArm  -11.6751 -10.4712 29.3014
RightForeArm  54.5487 78.1208 96.2826
RightHand  -0.110071 -13.0721 0.223476
LeftUpLeg  -18.713 15.321 -12.5713
LeftLeg  13.2332 15.2093 1.20266
LeftFoot  1.85717 -1.20763 10.3678
LeftToes  1.06244e-005 4.65856e-005 -8.18505e-006
493
root  40.7506 37.8528 7.44732 -113.737 -84.5471 107.24
RightUpLeg  24.7154 -15.5241 -16.7165
RightLeg  28.2941 18.7376 10.2507
RightFoot  -9.9884 -0.212934 9.04356
RightToes  0.00048216 0.542163 -0.142577
Spine  11.8383 2.97811 -1.68157
Spine1  10.6698 4.44355 -4.19183
HEad  -10.1623 3.55769 -1.37847
LeftShoulder1  7.87972 -12.94 -41.5715
LeftArm  -24.7676 21.5353 -20.5617
LeftForeArm  122.15 -74.6444 -136.323
LeftHand  -0.25398 0.0180481 5.50724
RightShoulder  5.74973 9.89552 36.9047
RightArm  -12.3732 -11.7428 29
RightForeArm  53.398 78.1568 94.8808
RightHand  -0.169455 -13.6313 0.958916
LeftUpLeg  -20.2661 19.8329 -14.9107
LeftLeg  18.9044 10.3815 4.62387
LeftFoot  0.727908 -1.19899 11.2481
LeftToes  1.06244e-005 4.65856e-005 -8.18505e-006
494
root  39.2165 37.9565 7.53935 -122.622 -85.0858 118.001
RightUpLeg  16.5424 -11.2252 -13.3182
RightLeg  38.408 14.3399 11.6423
RightFoot  2.24627 -1.63882 13.8667
RightToes  0.00048216 0.542163 -0.142577
Spine  8.55582 2.90752 -0.632512
Spine1  11.9421 4.83805 -5.55319
HEad  -9.21614 3.5641 -1.34224
LeftShoulder1  8.03958 -13.2015 -41.7658
LeftArm  -23.8846 20.8734 -20.6896
LeftForeArm  119.68 -75.4204 -133.341
LeftHand  -0.25398 0.0180481 5.50724
RightShoulder  5.8273 10.0118 37.1036
RightArm  -12.8468 -12.3024 28.4453
RightForeArm  51.7243 78.1703 93.4447
RightHand  -0.204758 -14.043 1.33885
LeftUpLeg  -21.606 18.1858 -13.6619
LeftLeg  23.12 12.3198 6.02272
LeftFoot  -2.85224 -0.801102 10.9952
LeftToes  1.06244e-005 4.65856e-005 -8.18505e-006
495
root  37.8394 38.0498 7.62868 -127.093 -83.4347 121.977
RightUpLeg  9.10045 -6.30611 -13.1915
RightLeg  49.3695 9.65377 11.4853
RightFoot  12.6858 -3.20646 15.5395
RightToes  0.00048216 0.542163 -0.142577
Spine  8.97066 3.1537 -2.466
Spine1  12.2282 4.89659 -6.0649
HEad  -8.57129 4.17629 -1.69715
LeftShoulder1  8.04663 -13.242 -41.696
LeftArm  -23.1738 20.4026 -21.0704
LeftForeArm  117.411 -75.9669 -130.88
LeftHand  -0.25398 0.0180481 5.50724
RightShoulder  5.81508 10.0518 36.8922
RightArm  -12.5427 -11.7235 27.7554
RightForeArm  48.3707 78.148 91.346
RightHand  -0.113427 -13.5835 0.181763
LeftUpLeg  -19.2095 19.0822 -14.2644
LeftLeg  24.3544 12.7585 6.57082
LeftFoot  -6.10186 -0.454197 10.6792
LeftToes  1.06244e-005 4.65856e-005 -8.18505e-006
496
root  36.43 38.282 7.7238 -131.26 -82.0347 124.953
RightUpLeg  2.51215 -2.20615 -13.2107
RightLeg  58.1311 5.16538 8.44655
RightFoot  15.66 -3.13031 13.401
RightToes  0.00048216 0.542163 -0.142577
Spine  10.1192 3.17564 -4.28667
Spine1  12.2268 4.50889 -5.81318
HEad  -8.21837 5.52357 -2.30148
LeftShoulder1  7.92595 -13.0569 -41.517
LeftArm  -22.5005 20.2034 -21.4649
LeftForeArm  115.667 -76.2744 -129.269
LeftHand  -0.25398 0.0180481 5.50724
RightShoulder  5.73204 10.0163 36.4045
RightArm  -11.8311 -10.6706 27.2525
RightForeArm  43.7086 78.0969 88.2808
RightHand  0.0165371 -12.8309 -1.62435
LeftUpLeg  -15.0755 20.6966 -14.1816
LeftLeg  23.7295 12.6574 6.37171
LeftFoot  -8.12721 -0.222959 9.67363
LeftToes  1.06244e-005 4.65856e-005 -8.18505e-006
497
root  34.9366 38.7287 7.85846 -130.877 -82.6693 123.502
RightUpLeg  -2.84383 -0.794195 -12.219
RightLeg  62.6793 1.72627 3.15722
RightFoot  12.8951 -1.84211 8.92543
RightToes  0.00048216 0.542163 -0.142577
Spine  11.111 2.34219 -4.48574
Spine1  11.8757 3.39605 -4.9763
HEad  -7.6853 6.87466 -2.92875
LeftShoulder1  7.86517 -12.9409 -41.4869
LeftArm  -21.6624 19.9339 -21.7328
LeftForeArm  113.492 -76.6552 -127.128
LeftHand  -0.25398 0.0180481 5.50724
RightShoulder  5.6363 9.92901 35.9784
RightArm  -11.5906 -10.4461 27.0079
RightForeArm  40.4695 78.0483 85.8486
RightHand  0.0549831 -12.8043 -2.22038
LeftUpLeg  -9.69421 20.6423 -12.5299
LeftLeg  21.2152 12.6618 5.37542
LeftFoot  -9.12398 -0.105172 8.27563
LeftToes  1.06244e-005 4.65856e-005 -8.18505e-006
498
root  33.4662 39.1366 7.99739 -127.773 -84.4664 120.642
RightUpLeg  -8.62157 -0.915682 -10.3642
RightLeg  63.13 -0.447003 -1.4879
RightFoot  8.64785 -0.86374 5.27135
RightToes  0.00048216 0.542163 -0.142577
Spine  10.602 1.30289 -3.62787
Spine1  11.872 2.20544 -4.17385
HEad  -6.87223 7.6883 -3.29836
LeftShoulder1  7.9165 -13.0133 -41.5817
LeftArm  -20.7084 19.4002 -22.082
LeftForeArm  110.857 -77.1538 -124.114
LeftHand  -0.25398 0.0180481 5.50724
RightShoulder  5.54188 9.79215 35.7064
RightArm  -12.0529 -11.5573 26.8081
RightForeArm  40.6363 78.0509 85.955
RightHand  0.00435618 -13.4523 -1.41341
LeftUpLeg  -5.70262 17.6767 -10.2604
LeftLeg  18.8517 14.3601 3.94876
LeftFoot  -10.1114 -0.0195497 7.55137
LeftToes  1.06244e-005 4.65856e-005 -8.18505e-006
